<svg width="184" height="52" viewBox="0 0 184 52" fill="none" xmlns="http://www.w3.org/2000/svg">
<rect width="52" height="52" rx="26" fill="#CAFF33"/>
<g clip-path="url(#clip0_11_89141)">
<path d="M38 26C38 19.3726 32.6274 14 26 14C19.3726 14 14 19.3726 14 26C14 31.9895 18.3882 36.954 24.125 37.8542V29.4687H21.0781V26H24.125V23.3562C24.125 20.3488 25.9166 18.6875 28.6576 18.6875C29.9701 18.6875 31.3438 18.9219 31.3438 18.9219V21.875H29.8306C28.34 21.875 27.875 22.8001 27.875 23.75V26H31.2031L30.6711 29.4687H27.875V37.8542C33.6118 36.954 38 31.9895 38 26Z" fill="#262626"/>
</g>
<rect x="66" width="52" height="52" rx="26" fill="#CAFF33"/>
<path d="M87.5502 35.7497C96.6045 35.7497 101.558 28.2465 101.558 21.7416C101.558 21.5307 101.554 21.3151 101.544 21.1041C102.508 20.4072 103.339 19.544 104 18.5551C103.103 18.9544 102.15 19.2151 101.174 19.3285C102.201 18.7127 102.971 17.7452 103.339 16.6055C102.373 17.1783 101.316 17.5824 100.213 17.8004C99.4708 17.0113 98.489 16.4889 97.4197 16.3138C96.3504 16.1387 95.2532 16.3208 94.2977 16.8319C93.3423 17.3429 92.5818 18.1545 92.1338 19.1411C91.6859 20.1277 91.5754 21.2344 91.8195 22.2901C89.8625 22.1918 87.9479 21.6835 86.2 20.7979C84.452 19.9122 82.9097 18.6692 81.673 17.1493C81.0444 18.233 80.8521 19.5154 81.135 20.7358C81.418 21.9563 82.1551 23.0232 83.1964 23.7197C82.4146 23.6949 81.65 23.4844 80.9656 23.1057V23.1666C80.9649 24.3039 81.3581 25.4063 82.0783 26.2865C82.7985 27.1667 83.8013 27.7703 84.9162 27.9947C84.1921 28.1929 83.432 28.2218 82.6948 28.0791C83.0095 29.0572 83.6216 29.9126 84.4458 30.5261C85.27 31.1395 86.2651 31.4804 87.2923 31.501C85.5484 32.8709 83.3942 33.6139 81.1766 33.6104C80.7833 33.6098 80.3904 33.5857 80 33.5382C82.2529 34.9835 84.8735 35.7511 87.5502 35.7497Z" fill="#262626"/>
<rect x="132" width="52" height="52" rx="26" fill="#CAFF33"/>
<g clip-path="url(#clip1_11_89141)">
<path d="M168.223 14H147.772C146.792 14 146 14.7734 146 15.7297V36.2656C146 37.2219 146.792 38 147.772 38H168.223C169.203 38 170 37.2219 170 36.2703V15.7297C170 14.7734 169.203 14 168.223 14ZM153.12 34.4516H149.558V22.9953H153.12V34.4516ZM151.339 21.4344C150.195 21.4344 149.272 20.5109 149.272 19.3719C149.272 18.2328 150.195 17.3094 151.339 17.3094C152.478 17.3094 153.402 18.2328 153.402 19.3719C153.402 20.5062 152.478 21.4344 151.339 21.4344ZM166.452 34.4516H162.894V28.8828C162.894 27.5562 162.87 25.8453 161.042 25.8453C159.191 25.8453 158.909 27.2937 158.909 28.7891V34.4516H155.356V22.9953H158.769V24.5609H158.816C159.289 23.6609 160.452 22.7094 162.181 22.7094C165.786 22.7094 166.452 25.0813 166.452 28.1656V34.4516Z" fill="#262626"/>
</g>
<defs>
<clipPath id="clip0_11_89141">
<rect width="24" height="24" fill="white" transform="translate(14 14)"/>
</clipPath>
<clipPath id="clip1_11_89141">
<rect width="24" height="24" fill="white" transform="translate(146 14)"/>
</clipPath>
</defs>
</svg>
